<svg id="visual" viewBox="0 0 900 600" width="900" height="600" xmlns="http://www.w3.org/2000/svg" xmlns:xlink="http://www.w3.org/1999/xlink" version="1.1"><path d="M0 433L21.5 431.5C43 430 86 427 128.8 426.5C171.7 426 214.3 428 257.2 421.2C300 414.3 343 398.7 385.8 398C428.7 397.3 471.3 411.7 514.2 413.3C557 415 600 404 642.8 405C685.7 406 728.3 419 771.2 420.8C814 422.7 857 413.3 878.5 408.7L900 404L900 601L878.5 601C857 601 814 601 771.2 601C728.3 601 685.7 601 642.8 601C600 601 557 601 514.2 601C471.3 601 428.7 601 385.8 601C343 601 300 601 257.2 601C214.3 601 171.7 601 128.8 601C86 601 43 601 21.5 601L0 601Z" fill="#f1c40f"></path><path d="M0 453L21.5 451C43 449 86 445 128.8 435.2C171.7 425.3 214.3 409.7 257.2 412.5C300 415.3 343 436.7 385.8 437.8C428.7 439 471.3 420 514.2 416.7C557 413.3 600 425.7 642.8 427C685.7 428.3 728.3 418.7 771.2 416.7C814 414.7 857 420.3 878.5 423.2L900 426L900 601L878.5 601C857 601 814 601 771.2 601C728.3 601 685.7 601 642.8 601C600 601 557 601 514.2 601C471.3 601 428.7 601 385.8 601C343 601 300 601 257.2 601C214.3 601 171.7 601 128.8 601C86 601 43 601 21.5 601L0 601Z" fill="#d7af0d"></path><path d="M0 507L21.5 496.3C43 485.7 86 464.3 128.8 458.8C171.7 453.3 214.3 463.7 257.2 472.3C300 481 343 488 385.8 488.2C428.7 488.3 471.3 481.7 514.2 475.7C557 469.7 600 464.3 642.8 465.2C685.7 466 728.3 473 771.2 477.3C814 481.7 857 483.3 878.5 484.2L900 485L900 601L878.5 601C857 601 814 601 771.2 601C728.3 601 685.7 601 642.8 601C600 601 557 601 514.2 601C471.3 601 428.7 601 385.8 601C343 601 300 601 257.2 601C214.3 601 171.7 601 128.8 601C86 601 43 601 21.5 601L0 601Z" fill="#bd9a0b"></path><path d="M0 497L21.5 498C43 499 86 501 128.8 506.2C171.7 511.3 214.3 519.7 257.2 525C300 530.3 343 532.7 385.8 525.8C428.7 519 471.3 503 514.2 494.7C557 486.3 600 485.7 642.8 488.3C685.7 491 728.3 497 771.2 504.2C814 511.3 857 519.7 878.5 523.8L900 528L900 601L878.5 601C857 601 814 601 771.2 601C728.3 601 685.7 601 642.8 601C600 601 557 601 514.2 601C471.3 601 428.7 601 385.8 601C343 601 300 601 257.2 601C214.3 601 171.7 601 128.8 601C86 601 43 601 21.5 601L0 601Z" fill="#a48609"></path><path d="M0 549L21.5 550.2C43 551.3 86 553.7 128.8 556.7C171.7 559.7 214.3 563.3 257.2 563.5C300 563.7 343 560.3 385.8 555C428.7 549.7 471.3 542.3 514.2 541.7C557 541 600 547 642.8 547.8C685.7 548.7 728.3 544.3 771.2 546.8C814 549.3 857 558.7 878.5 563.3L900 568L900 601L878.5 601C857 601 814 601 771.2 601C728.3 601 685.7 601 642.8 601C600 601 557 601 514.2 601C471.3 601 428.7 601 385.8 601C343 601 300 601 257.2 601C214.3 601 171.7 601 128.8 601C86 601 43 601 21.5 601L0 601Z" fill="#8c7207"></path></svg>